<?xml version="1.0" encoding="UTF-8"?>
<svg version="1.1" xmlns="http://www.w3.org/2000/svg" width="1066" height="1062">
<path d="M0 0 C351.78 0 703.56 0 1066 0 C1066 350.46 1066 700.92 1066 1062 C714.22 1062 362.44 1062 0 1062 C0 711.54 0 361.08 0 0 Z " fill="#F9F9F9" transform="translate(0,0)"/>
<path d="M0 0 C2.43372672 2.15883289 4.80559312 4.36464203 7.15625 6.61328125 C8.05537109 7.43505859 8.05537109 7.43505859 8.97265625 8.2734375 C30.08496918 28.21012279 43.67206803 58.03634204 47.15625 86.61328125 C47.22140057 89.25839438 47.24216426 91.9049695 47.21875 94.55078125 C47.21423828 95.23462891 47.20972656 95.91847656 47.20507812 96.62304688 C47.1934456 98.28649729 47.17551694 99.94990175 47.15625 101.61328125 C48.41999451 101.60661942 49.68373901 101.59995758 50.98577881 101.59309387 C62.93152327 101.53211476 74.87723589 101.48722813 86.82310104 101.45784473 C92.96367664 101.44223032 99.10412596 101.4210694 105.24462891 101.38696289 C111.17742392 101.35421861 117.11009793 101.33639651 123.04297638 101.32864952 C125.29944003 101.32313299 127.55589753 101.31236095 129.81230927 101.29609108 C160.9378843 101.08071191 160.9378843 101.08071191 172.90234375 112.2421875 C181.69563726 121.69333339 182.52232853 133.58936182 184.18969727 145.81396484 C184.46685005 147.77255822 184.7451876 149.73098424 185.02461243 151.68925476 C185.78077505 157.01221587 186.52048469 162.33734985 187.2574513 167.66299772 C188.04315259 173.31877253 188.84454494 178.97232369 189.64427185 184.62612915 C191.16799688 195.41480474 192.67845458 206.20529291 194.18384355 216.99654067 C196.01943726 230.15144886 197.86932909 243.30433604 199.72070312 256.45703125 C200.21601876 259.97620699 200.7113336 263.49538283 201.20664722 267.01455885 C201.53495333 269.34706873 201.86328928 271.6795744 202.19165534 274.01207584 C203.16957136 280.95954145 204.14576798 287.90724612 205.12068456 294.85513324 C209.56191385 326.50131728 214.10319956 358.13111078 218.79469299 389.74118042 C220.92779554 404.12176064 223.0126206 418.50320989 224.84375 432.92578125 C226.89658572 449.0384098 229.27834323 465.09419027 231.68783569 481.15710449 C233.91897003 496.04543952 236.05148657 510.93590297 237.93295288 525.87246704 C239.207184 535.96181591 240.65998236 546.01207923 242.23828125 556.05859375 C242.42151947 557.23366989 242.60475769 558.40874603 242.79354858 559.61943054 C243.69990713 565.42718877 244.62028816 571.2320338 245.56640625 577.03344727 C247.12295018 586.80172459 248.48132863 596.42453668 248.5234375 606.33203125 C248.52785355 607.09235153 248.53226959 607.85267181 248.53681946 608.6360321 C248.42712088 614.9380247 246.84047172 619.56150909 243.15625 624.61328125 C242.41375 625.68578125 241.67125 626.75828125 240.90625 627.86328125 C233.56589026 635.20364099 226.09873768 638.81730427 215.71402371 638.88686085 C214.24836431 638.88155243 214.24836431 638.88155243 212.75309563 638.87613678 C211.70128766 638.88024205 210.64947969 638.88434731 209.56579876 638.88857698 C206.02378941 638.89993064 202.48193527 638.89700083 198.93991089 638.89416504 C196.38178202 638.89933153 193.82365476 638.90535762 191.26552975 638.91217184 C184.9610222 638.92732392 178.65654852 638.93171756 172.35202465 638.93282995 C164.80086522 638.93465801 157.24973709 638.94799539 149.69859113 638.9615236 C131.44806688 638.99363989 113.19754597 639.0054496 94.94699853 639.0150211 C86.31316649 639.01969322 77.6793371 639.02689853 69.04550713 639.03441185 C39.49039817 639.06008212 9.93529069 639.08152089 -19.61982918 639.08841705 C-21.47503839 639.08886032 -23.3302476 639.08930389 -25.1854568 639.08974776 C-27.04514225 639.09018904 -28.90482769 639.09063 -30.76451313 639.09107065 C-34.49535251 639.09195576 -38.22619188 639.09284999 -41.95703125 639.09375 C-42.88206214 639.09396878 -43.80709302 639.09418756 -44.76015515 639.09441298 C-74.75584771 639.10167461 -104.75144362 639.1335169 -134.74709917 639.18013073 C-166.46115308 639.22932486 -198.17515174 639.2567626 -229.88924491 639.25915289 C-233.37077261 639.2594958 -236.85230029 639.25992665 -240.33382797 639.26042175 C-241.19107634 639.26053329 -242.04832471 639.26064483 -242.93155031 639.26075974 C-256.72575886 639.26306081 -270.5198682 639.28510505 -284.31404326 639.31419586 C-298.17948169 639.3429313 -312.04479297 639.34939678 -325.910253 639.33331591 C-334.14629398 639.32440597 -342.38192443 639.33211322 -350.61791144 639.36379292 C-356.76994575 639.38560179 -362.92155702 639.37600262 -369.07358311 639.35424918 C-371.56082038 639.35032503 -374.04809871 639.35653922 -376.53527822 639.3739379 C-391.33897002 639.47093528 -402.29333767 639.46572129 -413.84375 629.23828125 C-417.0210486 625.7362952 -419.06041019 621.96857345 -420.84375 617.61328125 C-421.4625 616.15921875 -421.4625 616.15921875 -422.09375 614.67578125 C-423.81352873 607.65335145 -422.71566241 600.44850852 -421.63671875 593.390625 C-421.5106575 592.52804581 -421.38459625 591.66546661 -421.25471497 590.77674866 C-420.85293592 588.0338278 -420.44265583 585.29227319 -420.03125 582.55078125 C-419.50032855 578.97708346 -418.97374966 575.40276591 -418.44921875 571.828125 C-418.26140713 570.54902866 -418.26140713 570.54902866 -418.06980133 569.24409199 C-417.1102336 562.63061728 -416.25711578 556.00923181 -415.44921875 549.37573242 C-413.95678837 537.29589136 -412.28017102 525.2470858 -410.55078125 513.19921875 C-410.24061759 511.02791461 -409.93060878 508.85658834 -409.6207428 506.6852417 C-408.80368692 500.96432563 -407.98381919 495.24381618 -407.16316986 489.52341461 C-406.65103041 485.9518811 -406.13974343 482.38022652 -405.62872314 478.80853271 C-402.04705621 453.77695706 -398.46299472 428.74614121 -394.71875 403.73828125 C-391.1810197 380.1067856 -387.78547899 356.45538419 -384.40625 332.80078125 C-384.19362078 331.31237669 -384.19362078 331.31237669 -383.97669601 329.79390335 C-380.35431468 304.42898572 -376.77478396 279.05876543 -373.28125 253.67578125 C-369.99838682 229.83500118 -366.66198579 206.00212777 -363.27615356 182.17575073 C-362.74304207 178.42351749 -362.2119017 174.67101404 -361.68258667 170.91824341 C-361.05881808 166.49678376 -360.43075029 162.07595479 -359.79952431 157.65555382 C-359.56804551 156.02990731 -359.33796302 154.4040612 -359.10945702 152.77799416 C-358.00610939 144.93406343 -356.83197666 137.11092561 -355.34912109 129.32861328 C-355.12533783 128.15283722 -354.90155457 126.97706116 -354.67098999 125.76565552 C-352.51709332 117.55777326 -346.6829615 111.39204065 -339.84375 106.61328125 C-334.21718051 103.56362497 -328.8181702 101.48532142 -322.37652588 101.49302673 C-321.04304863 101.49096474 -321.04304863 101.49096474 -319.68263245 101.48886108 C-318.715186 101.49245636 -317.74773956 101.49605164 -316.75097656 101.49975586 C-315.72626755 101.49960983 -314.70155853 101.49946381 -313.64579773 101.49931335 C-310.25863529 101.50001004 -306.87152783 101.5077911 -303.484375 101.515625 C-301.13596629 101.51749004 -298.78755719 101.51891354 -296.43914795 101.51991272 C-290.25778123 101.52373109 -284.076438 101.53355561 -277.89508057 101.5446167 C-271.58760903 101.55484541 -265.28013369 101.55941347 -258.97265625 101.56445312 C-246.59634384 101.57517845 -234.22004888 101.59224675 -221.84375 101.61328125 C-221.84875912 100.581227 -221.84875912 100.581227 -221.85386944 99.52832317 C-221.85646676 98.62651727 -221.85906408 97.72471136 -221.86174011 96.795578 C-221.86674923 95.45414876 -221.86674923 95.45414876 -221.87185955 94.08561993 C-221.84186065 91.44710553 -221.60040834 88.95019722 -221.14453125 86.3515625 C-220.9129834 85.02644653 -220.9129834 85.02644653 -220.67675781 83.67456055 C-220.50499023 82.76746338 -220.33322266 81.86036621 -220.15625 80.92578125 C-219.88506348 79.48295776 -219.88506348 79.48295776 -219.60839844 78.01098633 C-212.90222098 43.83747129 -192.48371623 11.55243916 -163.45703125 -8.015625 C-162.25385721 -8.80789579 -161.04943446 -9.59827359 -159.84375 -10.38671875 C-159.26286621 -10.77456543 -158.68198242 -11.16241211 -158.08349609 -11.56201172 C-108.79684645 -44.18722943 -44.59167149 -37.42515286 0 0 Z " fill="#1C486F" transform="translate(609.84375,67.38671875)"/>
<path d="M0 0 C1.15745728 -0.00478363 2.31491455 -0.00956726 3.50744629 -0.01449585 C5.95175538 -0.0178945 8.39610995 -0.00869475 10.84033203 0.01220703 C14.58078408 0.03896973 18.31823499 0.01245445 22.05859375 -0.01953125 C24.43490245 -0.01622715 26.81120929 -0.00982092 29.1875 0 C30.86422791 -0.01518173 30.86422791 -0.01518173 32.5748291 -0.03067017 C40.27270495 0.0854763 40.27270495 0.0854763 44.21386719 2.86279297 C46.09139052 5.66054657 47.17231576 7.91372442 48.078125 11.1484375 C48.52091797 12.67404297 48.52091797 12.67404297 48.97265625 14.23046875 C49.26011719 15.28105469 49.54757812 16.33164062 49.84375 17.4140625 C50.44037777 19.51368448 51.03921381 21.61268067 51.640625 23.7109375 C51.89682617 24.63745117 52.15302734 25.56396484 52.41699219 26.51855469 C52.89952277 28.62371615 52.89952277 28.62371615 54.09375 29.6640625 C55.59801539 29.76050098 57.10681402 29.78701577 58.61416721 29.78596783 C59.59702562 29.78774208 60.57988402 29.78951633 61.59252602 29.79134434 C62.68529459 29.78822973 63.77806316 29.78511512 64.90394592 29.78190613 C66.05480114 29.78261071 67.20565636 29.78331529 68.39138597 29.78404123 C71.60034144 29.78512812 74.80925878 29.78177467 78.01820934 29.77671683 C81.47372844 29.772404 84.9292447 29.77390622 88.38476562 29.77496338 C93.60012196 29.77608523 98.81547299 29.77543627 104.03082877 29.77276257 C114.28370976 29.76764326 124.53654147 29.77597648 134.78941345 29.78938293 C136.40239097 29.79142969 138.0153685 29.79347203 139.62834603 29.79550999 C142.89459553 29.79966639 146.16084494 29.80388162 149.42709434 29.80811751 C157.83152201 29.81892707 166.23595045 29.82872785 174.64038086 29.8371582 C175.90590085 29.83843508 175.90590085 29.83843508 177.19698691 29.83973775 C190.85854216 29.85294833 204.520039 29.84794632 218.1815936 29.83708664 C232.20291738 29.82645421 246.22409568 29.83864818 260.24538606 29.87116891 C268.89564937 29.89044669 277.54552413 29.89145391 286.19578152 29.86901263 C292.12772945 29.85526013 298.05939427 29.8634162 303.99130309 29.88873722 C307.41322348 29.90267541 310.83442886 29.90691323 314.25632286 29.88491249 C317.96977745 29.86610129 321.681307 29.88411776 325.39466858 29.91130066 C326.4718221 29.89703244 327.54897561 29.88276422 328.65877014 29.86806363 C335.78903385 29.97356675 340.03796312 31.56187717 345.09375 36.6640625 C349.87396161 42.79253892 350.75271983 48.07064867 350.09375 55.6640625 C349.32459679 59.29164849 348.23018079 62.78488061 347.09375 66.3125 C346.78222992 67.31499786 346.47070984 68.31749573 346.14974976 69.35037231 C345.14251416 72.58363886 344.11814047 75.81119505 343.09375 79.0390625 C342.39783264 81.26453083 341.70333827 83.49044463 341.01025391 85.71679688 C339.65211415 90.07786655 338.28921851 94.43740004 336.92285156 98.79589844 C334.70195438 105.89861395 332.5645152 113.02346829 330.46875 120.1640625 C330.16018066 121.21198975 329.85161133 122.25991699 329.53369141 123.33959961 C328.71812065 126.11376558 327.90546739 128.88876708 327.09375 131.6640625 C325.4307517 137.33180879 323.76544475 142.99887474 322.09375 148.6640625 C321.85946289 149.4586084 321.62517578 150.2531543 321.38378906 151.07177734 C319.64847497 156.94454057 317.88488933 162.80808908 316.09375 168.6640625 C315.87187012 169.3952832 315.64999023 170.12650391 315.42138672 170.87988281 C312.12193551 181.66125862 309.19649119 190.39342055 299.42703629 196.74822044 C296.09299782 198.05686939 292.85305562 197.95182059 289.32366943 197.9425354 C288.53620968 197.9483278 287.74874993 197.9541202 286.93742776 197.96008813 C284.29645993 197.9771054 281.65566668 197.97996611 279.01464844 197.98291016 C277.1224525 197.99220714 275.23026067 198.00237547 273.33807373 198.01335144 C268.19798739 198.04069138 263.05792851 198.0558127 257.91778851 198.06877947 C252.54723135 198.08439252 247.17673043 198.11118855 241.80621338 198.1368103 C231.6349019 198.18363043 221.46357988 198.2203589 211.29221559 198.25348318 C199.71310646 198.29168171 188.13405378 198.34109781 176.5549922 198.39146733 C152.73461994 198.4948353 128.91421144 198.58407989 105.09375 198.6640625 C105.97809835 203.18000289 107.19966594 207.3880266 108.71875 211.7265625 C108.94175781 212.43361328 109.16476562 213.14066406 109.39453125 213.86914062 C109.63816406 214.55556641 109.88179688 215.24199219 110.1328125 215.94921875 C110.34115723 216.56676025 110.54950195 217.18430176 110.76416016 217.82055664 C112.87511437 220.74744156 115.84573902 222.25275073 119.09375 223.6640625 C122.74451987 224.24764699 122.74451987 224.24764699 126.62149048 224.1493988 C127.34673239 224.15337223 128.0719743 224.15734565 128.81919324 224.16143948 C131.23222616 224.16998262 133.64417367 224.15025373 136.05712891 224.13061523 C137.79387049 224.13116433 139.53061232 224.13354125 141.26734924 224.13760376 C144.99857946 224.14277079 148.7295153 224.13573554 152.46071243 224.11935234 C158.36040084 224.09420878 164.2597995 224.10052411 170.15951538 224.11183167 C184.80903339 224.13501696 199.458467 224.11657916 214.10797119 224.09033203 C225.50178013 224.07039443 236.89535762 224.06178558 248.28916681 224.08726841 C254.15459001 224.09909189 260.01935389 224.08741359 265.88470864 224.0580157 C269.530964 224.04476947 273.17696302 224.05217192 276.82320976 224.06529617 C278.51431386 224.06715409 280.2054524 224.06042461 281.89648247 224.04449272 C284.20501396 224.02392932 286.51146748 224.03405311 288.81997681 224.05174255 C290.11153498 224.04931266 291.40309315 224.04688276 292.73378944 224.04437923 C296.97880901 224.82729545 298.46014884 226.31060762 301.09375 229.6640625 C301.8383824 233.63543531 301.46641878 235.10505933 299.21875 238.4765625 C296.16814773 241.61688837 294.22442336 241.8446431 289.96875 242.2265625 C289.05867188 242.31035156 288.14859375 242.39414062 287.2109375 242.48046875 C286.51226563 242.54105469 285.81359375 242.60164062 285.09375 242.6640625 C285.238125 243.3859375 285.3825 244.1078125 285.53125 244.8515625 C285.716875 245.7796875 285.9025 246.7078125 286.09375 247.6640625 C286.279375 248.4065625 286.465 249.1490625 286.65625 249.9140625 C288.07435592 258.82787116 286.71522363 265.9951904 281.80859375 273.67578125 C277.49997055 279.20858152 271.68449173 282.46714859 265.09375 284.6640625 C255.28028582 285.68414628 248.05503206 284.67157417 240.09375 278.6640625 C234.65834259 273.89815203 230.69314053 267.42172481 229.78125 260.18359375 C229.65372717 255.04282978 230.42133256 250.33468684 231.75390625 245.37890625 C231.86605469 244.81300781 231.97820312 244.24710938 232.09375 243.6640625 C231.03280414 242.37895474 231.03280414 242.37895474 228.58177185 242.54380798 C226.90632042 242.5471389 226.90632042 242.5471389 225.19702148 242.55053711 C223.30517372 242.55065041 223.30517372 242.55065041 221.37510681 242.55076599 C219.98835206 242.5558734 218.60159771 242.56108941 217.21484375 242.56640625 C215.80379791 242.56827049 214.39275143 242.56969436 212.98170471 242.57069397 C209.26134465 242.57451871 205.5410234 242.5843486 201.82067871 242.59539795 C198.02694219 242.60561302 194.23319942 242.61019179 190.43945312 242.61523438 C182.99086769 242.62597092 175.54231428 242.6430468 168.09375 242.6640625 C168.25383545 243.75283691 168.4139209 244.84161133 168.57885742 245.96337891 C170.05146452 256.54743697 169.7994271 264.99272281 163.55078125 273.8515625 C158.85879995 279.69238133 153.46197044 283.17952271 146.09375 284.6640625 C137.44691214 285.55156785 131.42755521 284.30022032 124.09375 279.6640625 C123.18625 279.1278125 122.27875 278.5915625 121.34375 278.0390625 C115.21420392 271.56898609 112.56370048 265.17529509 112.65625 256.3515625 C112.80665639 251.6980801 113.23538328 247.23965368 114.09375 242.6640625 C113.20171875 242.62667969 112.3096875 242.58929687 111.390625 242.55078125 C109.63492188 242.45216797 109.63492188 242.45216797 107.84375 242.3515625 C106.68359375 242.29355469 105.5234375 242.23554687 104.328125 242.17578125 C100.83315966 241.62283384 99.45424417 241.27133561 97.09375 238.6640625 C96.16503369 236.27291952 95.47122772 234.07115004 94.84375 231.6015625 C94.42023456 230.05666873 93.99429274 228.51243884 93.56640625 226.96875 C93.21860107 225.69789551 93.21860107 225.69789551 92.86376953 224.40136719 C91.43266264 219.31399546 89.84760848 214.27359002 88.28125 209.2265625 C87.31497405 206.0983101 86.34949261 202.9698131 85.3840332 199.84130859 C84.68705171 197.58326967 83.98884066 195.32562293 83.28915405 193.06842041 C79.18131609 179.81440021 75.14203154 166.54148725 71.18359375 153.2421875 C70.97374784 152.53728621 70.76390194 151.83238491 70.54769707 151.10612297 C68.60492963 144.57852949 66.66516684 138.05004448 64.72729492 131.52099609 C63.44400814 127.19826303 62.15863165 122.87615627 60.87109375 118.5546875 C60.66426846 117.86040209 60.45744316 117.16611668 60.24435043 116.45079231 C57.36415059 106.79369178 54.40654419 97.1645035 51.29637146 87.57855225 C49.59590401 82.32750073 48.04050993 77.05302232 46.59375 71.7265625 C43.90684354 61.8599358 40.95014956 52.08323709 37.91064453 42.31982422 C37.16637626 39.9001738 36.4516375 37.47412596 35.74609375 35.04296875 C35.34197266 33.70808274 34.93708898 32.37342723 34.53125 31.0390625 C34.19996094 29.91242188 33.86867188 28.78578125 33.52734375 27.625 C31.6336776 23.71383122 29.6249535 22.18180605 26.09375 19.6640625 C22.45473798 18.45105849 19.10809202 18.52873546 15.3203125 18.5234375 C13.7577979 18.50511119 12.19529749 18.48554104 10.6328125 18.46484375 C8.17488611 18.43587498 5.71787387 18.41406233 3.25976562 18.41357422 C0.88329401 18.4102338 -1.49108095 18.37565903 -3.8671875 18.3359375 C-4.59755219 18.3430072 -5.32791687 18.3500769 -6.08041382 18.35736084 C-9.98708455 18.26450898 -11.75999639 17.77872302 -14.86962891 15.34082031 C-16.90625 12.6640625 -16.90625 12.6640625 -17.53125 9.1640625 C-15.7880765 -0.59770913 -8.17987366 -0.07406369 0 0 Z " fill="#F9F9F9" transform="translate(330.90625,316.3359375)"/>
<path d="M0 0 C7.86856051 6.44963976 10.87185594 13.44214797 12.58203125 23.3203125 C13.10983434 29.31350309 13.00560201 35.34083116 12.98046875 41.3515625 C12.9824953 43.07686485 12.98541154 44.80216636 12.98916626 46.52746582 C12.99356233 50.12467693 12.98724697 53.72166294 12.97314453 57.31884766 C12.95605426 61.8979205 12.96591015 66.47646556 12.98386192 71.0555191 C12.99477375 74.61260862 12.99121976 78.16957584 12.98347855 81.72666931 C12.98149692 83.41373255 12.98386298 85.1008074 12.99091721 86.78785706 C13.03504974 100.30396931 12.62153945 113.47890962 3.0546875 124 C-6.86635067 133.38413493 -19.58070923 133.70176051 -32.44140625 133.53125 C-43.8934877 133.18395738 -51.16392581 129.57435544 -59.16796875 121.5703125 C-64.57848787 113.75511822 -66.56154806 105.69943913 -66.5949707 96.32983398 C-66.6015419 95.52761917 -66.6081131 94.72540436 -66.61488342 93.89888 C-66.63457631 91.24638771 -66.6462728 88.59395205 -66.65625 85.94140625 C-66.66032553 85.03206896 -66.66440105 84.12273167 -66.66860008 83.1858387 C-66.68944814 78.36860508 -66.70375285 73.5513998 -66.71313477 68.73413086 C-66.72417007 63.78029284 -66.75854022 58.8269076 -66.79830647 53.87322903 C-66.82457137 50.04597695 -66.83283554 46.21883091 -66.83641624 42.39149666 C-66.84126017 40.56681336 -66.85281087 38.74213408 -66.87145424 36.9175396 C-66.992276 24.30452416 -66.47671929 13.24825269 -58.1015625 3.03515625 C-44.21889927 -11.10518982 -15.61350589 -10.84621573 0 0 Z " fill="#1E4A70" transform="translate(802.41796875,773.6796875)"/>
<path d="M0 0 C7.86856051 6.44963976 10.87185594 13.44214797 12.58203125 23.3203125 C13.10983434 29.31350309 13.00560201 35.34083116 12.98046875 41.3515625 C12.9824953 43.07686485 12.98541154 44.80216636 12.98916626 46.52746582 C12.99356233 50.12467693 12.98724697 53.72166294 12.97314453 57.31884766 C12.95605426 61.8979205 12.96591015 66.47646556 12.98386192 71.0555191 C12.99477375 74.61260862 12.99121976 78.16957584 12.98347855 81.72666931 C12.98149692 83.41373255 12.98386298 85.1008074 12.99091721 86.78785706 C13.03504974 100.30396931 12.62153945 113.47890962 3.0546875 124 C-6.86635067 133.38413493 -19.58070923 133.70176051 -32.44140625 133.53125 C-43.8934877 133.18395738 -51.16392581 129.57435544 -59.16796875 121.5703125 C-64.57848787 113.75511822 -66.56154806 105.69943913 -66.5949707 96.32983398 C-66.6015419 95.52761917 -66.6081131 94.72540436 -66.61488342 93.89888 C-66.63457631 91.24638771 -66.6462728 88.59395205 -66.65625 85.94140625 C-66.66032553 85.03206896 -66.66440105 84.12273167 -66.66860008 83.1858387 C-66.68944814 78.36860508 -66.70375285 73.5513998 -66.71313477 68.73413086 C-66.72417007 63.78029284 -66.75854022 58.8269076 -66.79830647 53.87322903 C-66.82457137 50.04597695 -66.83283554 46.21883091 -66.83641624 42.39149666 C-66.84126017 40.56681336 -66.85281087 38.74213408 -66.87145424 36.9175396 C-66.992276 24.30452416 -66.47671929 13.24825269 -58.1015625 3.03515625 C-44.21889927 -11.10518982 -15.61350589 -10.84621573 0 0 Z " fill="#1E4A70" transform="translate(220.41796875,773.6796875)"/>
<path d="M0 0 C12.54 0 25.08 0 38 0 C42.95005038 43.10261263 42.95005038 43.10261263 44.8125 60.875 C44.9360083 62.03539795 45.0595166 63.1957959 45.18676758 64.39135742 C45.29657959 65.45588135 45.4063916 66.52040527 45.51953125 67.6171875 C45.61339111 68.52065918 45.70725098 69.42413086 45.80395508 70.35498047 C46.01816729 73.24511138 46.03266107 76.10299003 46 79 C46.66 79 47.32 79 48 79 C47.9498877 78.44691162 47.89977539 77.89382324 47.84814453 77.32397461 C46.56154522 62.85483791 45.63195368 48.37993928 44.875 33.875 C44.83070862 33.05055389 44.78641724 32.22610779 44.74078369 31.37667847 C44.61175243 28.9570565 44.48856981 26.53720414 44.3671875 24.1171875 C44.32978455 23.42076645 44.29238159 22.7243454 44.25384521 22.00682068 C43.90013252 14.65235895 44 7.39464747 44 0 C53.9 0 63.8 0 74 0 C74 44.88 74 89.76 74 136 C61.79 136 49.58 136 37 136 C35.14627229 126.11345219 33.44682972 116.56677213 32.4296875 106.6171875 C32.30312775 105.43327423 32.17656799 104.24936096 32.0461731 103.02957153 C31.64978998 99.31198631 31.26196824 95.59357586 30.875 91.875 C30.47924934 88.12091217 30.08168062 84.36702615 29.68240356 80.61331177 C29.43624303 78.29412827 29.19237561 75.97469987 28.95114136 73.65499878 C28.43372526 68.73687828 27.85968248 63.87235799 27 59 C26.9379225 57.37605252 26.91287959 55.74994703 26.9375 54.125 C26.94652344 53.34382812 26.95554687 52.56265625 26.96484375 51.7578125 C26.97644531 51.17773438 26.98804688 50.59765625 27 50 C26.34 50 25.68 50 25 50 C25.12060791 51.48318726 25.12060791 51.48318726 25.24365234 52.99633789 C30.37558189 116.28195074 30.37558189 116.28195074 30 136 C20.1 136 10.2 136 0 136 C0 91.12 0 46.24 0 0 Z " fill="#1E4A70" transform="translate(412,769)"/>
<path d="M0 0 C12.21 0 24.42 0 37 0 C38.3197417 6.59870852 39.46867431 12.98980794 40.21875 19.64453125 C40.37386047 20.98024422 40.37386047 20.98024422 40.53210449 22.34294128 C40.7491199 24.21920496 40.96414139 26.09570024 41.17724609 27.97241211 C41.49494103 30.76798334 41.81917137 33.56273352 42.14453125 36.35742188 C43.22811192 45.73430003 44.2414598 55.11680892 45.15625 64.51171875 C45.24201294 65.37722855 45.32777588 66.24273834 45.4161377 67.13447571 C45.8253455 71.44200626 46.09493833 75.66668043 46 80 C46.66 80 47.32 80 48 80 C47.92816246 78.91696846 47.92816246 78.91696846 47.85487366 77.8120575 C47.39770218 70.91618749 46.9417928 64.02023501 46.48720646 57.12419415 C46.25361083 53.58120545 46.01957296 50.03824728 45.78442383 46.49536133 C44.75637426 31.00146531 43.76540741 15.50957122 43 0 C53.23 0 63.46 0 74 0 C74 44.88 74 89.76 74 136 C61.79 136 49.58 136 37 136 C35.63382149 129.85219673 34.51540223 123.99255877 33.81640625 117.77734375 C33.71623199 116.92201553 33.61605774 116.06668732 33.5128479 115.18544006 C33.19173373 112.43661004 32.87696652 109.6870977 32.5625 106.9375 C32.12406741 103.1547529 31.68304575 99.3723088 31.2421875 95.58984375 C31.08157082 94.20543594 31.08157082 94.20543594 30.91770935 92.7930603 C30.31397499 87.60860806 29.68274729 82.42957564 29.0078125 77.25390625 C28.86657959 76.17052979 28.72534668 75.08715332 28.57983398 73.97094727 C28.32927812 72.07361417 28.07405143 70.17688814 27.81274414 68.28100586 C27.05273098 62.49183877 26.86727979 56.83658479 27 51 C26.34 51 25.68 51 25 51 C25.45565319 58.125174 25.91449585 65.25013794 26.375 72.375 C26.47671005 73.952314 26.47671005 73.952314 26.58047485 75.56149292 C27.42936557 88.697973 28.28790978 101.83074462 29.44091797 114.94482422 C30.03434499 122.04170095 30 128.79733564 30 136 C20.1 136 10.2 136 0 136 C0 91.12 0 46.24 0 0 Z " fill="#1E4A70" transform="translate(237,769)"/>
<path d="M0 0 C11.22 0 22.44 0 34 0 C34 18.81 34 37.62 34 57 C35.98 57 37.96 57 40 57 C40 38.19 40 19.38 40 0 C51.22 0 62.44 0 74 0 C74 44.88 74 89.76 74 136 C62.78 136 51.56 136 40 136 C40 117.52 40 99.04 40 80 C38.02 80 36.04 80 34 80 C34 98.48 34 116.96 34 136 C22.78 136 11.56 136 0 136 C0 91.12 0 46.24 0 0 Z " fill="#1C486F" transform="translate(657,769)"/>
<path d="M0 0 C57.60377358 0 57.60377358 0 66.53125 8.44921875 C71.18225554 13.60047779 72.24718907 18.84577968 72.2746582 25.61279297 C72.28419022 26.90788788 72.29372223 28.20298279 72.30354309 29.537323 C72.30328161 30.93894478 72.3023443 32.34056657 72.30078125 33.7421875 C72.30467336 35.19418458 72.30900909 36.64618054 72.31376648 38.09817505 C72.32121007 41.13596289 72.32095124 44.17363448 72.31567383 47.21142578 C72.30988533 51.08707907 72.32680383 54.96225349 72.3500185 58.83782768 C72.36481587 61.83544658 72.36561937 64.83295178 72.36250877 67.83060074 C72.3630191 69.25861686 72.3682021 70.68663984 72.37832069 72.11462021 C72.47917567 88.33874296 72.47917567 88.33874296 67.37890625 95.171875 C57.47365917 103.77772407 48.26997198 104 35 104 C35 114.56 35 125.12 35 136 C23.45 136 11.9 136 0 136 C0 91.12 0 46.24 0 0 Z " fill="#1D4970" transform="translate(819,769)"/>
<path d="M0 0 C0.88558594 -0.00322266 1.77117188 -0.00644531 2.68359375 -0.00976562 C12.21453136 0.06720964 22.27451686 1.40589477 29.484375 8.17578125 C34.2326391 13.38513711 36.77588544 17.62075317 36.6953125 24.83203125 C36.69031738 25.75346924 36.68532227 26.67490723 36.68017578 27.62426758 C36.66196777 28.77950928 36.64375977 29.93475098 36.625 31.125 C36.58375 34.816875 36.5425 38.50875 36.5 42.3125 C26.27 42.3125 16.04 42.3125 5.5 42.3125 C12.59828632 51.63585069 12.59828632 51.63585069 17.9375 56.5625 C27.07698489 65.54386231 32.51005701 75.88797005 35.5 88.3125 C35.85449219 89.49070312 36.20898438 90.66890625 36.57421875 91.8828125 C37.99812745 97.62078895 37.86833405 103.43313335 37.875 109.3125 C37.89949219 110.44945312 37.92398438 111.58640625 37.94921875 112.7578125 C37.97923216 121.38166565 36.63164953 127.3470213 30.5 133.5625 C21.90964183 140.09903034 12.87628989 140.69255986 2.4375 140.8125 C1.43275635 140.83103027 0.4280127 140.84956055 -0.60717773 140.86865234 C-10.81718423 140.78363147 -19.18385557 138.13752743 -26.84375 131.2890625 C-30.84289882 126.51649339 -31.87175727 122.3095667 -31.79296875 116.1640625 C-31.78547607 114.96088379 -31.7779834 113.75770508 -31.77026367 112.51806641 C-31.74295166 111.00647949 -31.71563965 109.49489258 -31.6875 107.9375 C-31.625625 103.11125 -31.56375 98.285 -31.5 93.3125 C-21.27 93.3125 -11.04 93.3125 -0.5 93.3125 C-0.17 101.2325 0.16 109.1525 0.5 117.3125 C1.82 117.3125 3.14 117.3125 4.5 117.3125 C5.29160763 103.67925747 2.29454112 91.31643911 -6.81542969 80.79296875 C-8.83388903 78.57036516 -10.89015799 76.385805 -12.95703125 74.20825195 C-25.71758183 60.70585515 -31.84946541 47.82641162 -31.875 29.25 C-31.89949219 28.30833984 -31.92398438 27.36667969 -31.94921875 26.39648438 C-31.98018844 18.97924442 -30.4162289 13.84069985 -25.67578125 8.10546875 C-25.06089844 7.57566406 -24.44601562 7.04585937 -23.8125 6.5 C-22.90951172 5.68595703 -22.90951172 5.68595703 -21.98828125 4.85546875 C-15.028399 0.53968619 -8.03462012 -0.14619032 0 0 Z " fill="#1D4970" transform="translate(614.5,766.6875)"/>
<path d="M0 0 C14.29806513 10.94078465 25.73177205 28.94155079 28.203125 47.0390625 C28.203125 49.3490625 28.203125 51.6590625 28.203125 54.0390625 C-16.676875 54.0390625 -61.556875 54.0390625 -107.796875 54.0390625 C-107.796875 47.52639593 -107.68370759 43.12722487 -105.734375 37.2265625 C-105.39937988 36.19462769 -105.39937988 36.19462769 -105.05761719 35.1418457 C-98.62751497 16.30427075 -84.57547474 0.86290361 -66.796875 -7.9609375 C-43.75426212 -16.98764317 -20.29190088 -14.22700313 0 0 Z " fill="#F8F9F9" transform="translate(562.796875,114.9609375)"/>
<path d="M0 0 C18.48 0 36.96 0 56 0 C56 7.92 56 15.84 56 24 C49.4 24 42.8 24 36 24 C36 35.88 36 47.76 36 60 C41.28 60 46.56 60 52 60 C52 65.61 52 71.22 52 77 C46.72 77 41.44 77 36 77 C36 88.88 36 100.76 36 113 C42.93 113 49.86 113 57 113 C57 120.59 57 128.18 57 136 C38.19 136 19.38 136 0 136 C0 91.12 0 46.24 0 0 Z " fill="#1E4970" transform="translate(491,769)"/>
<path d="M0 0 C11.55 0 23.1 0 35 0 C35 36.63 35 73.26 35 111 C40.61 111 46.22 111 52 111 C52 119.25 52 127.5 52 136 C34.84 136 17.68 136 0 136 C0 91.12 0 46.24 0 0 Z " fill="#1C486F" transform="translate(316,769)"/>
<path d="M0 0 C11.55 0 23.1 0 35 0 C35 44.88 35 89.76 35 136 C23.45 136 11.9 136 0 136 C0 91.12 0 46.24 0 0 Z " fill="#1C486F" transform="translate(372,769)"/>
<path d="M0 0 C4.51269568 3.312231 7.26641874 8.24066248 9.01171875 13.4765625 C9.8409837 23.29179686 8.93442783 30.59968094 2.69921875 38.3515625 C-2.70505433 42.62470866 -7.70803016 44.06149149 -14.49609375 43.82421875 C-20.10470533 43.04182623 -23.80196441 40.63651674 -27.80078125 36.7265625 C-32.58287848 29.62173233 -34.05146926 23.04316937 -32.98828125 14.4765625 C-31.16965566 7.28212541 -27.03020632 2.6451186 -20.98828125 -1.5234375 C-14.05659777 -3.83399866 -6.52609019 -3.25718685 0 0 Z " fill="#F6F7F8" transform="translate(449.98828125,962.5234375)"/>
<path d="M0 0 C5.506875 -0.12375 5.506875 -0.12375 11.125 -0.25 C12.2711377 -0.28641602 13.41727539 -0.32283203 14.59814453 -0.36035156 C20.72617886 -0.42697231 24.39781897 -0.19477484 29 4 C31.6785782 8.0178673 31.69726204 11.27687975 31 16 C29.125 18.9375 29.125 18.9375 27 21 C26.34 21.66 25.68 22.32 25 23 C25.93585937 23.98033203 25.93585937 23.98033203 26.890625 24.98046875 C29.51140762 28.73207054 30.07376972 31.86131362 30.75 36.3125 C30.87503906 37.05306641 31.00007812 37.79363281 31.12890625 38.55664062 C31.43289169 40.36886152 31.71834436 42.18417461 32 44 C30.02 44 28.04 44 26 44 C24.06473361 39.85300059 23.27574505 35.67704091 22.46484375 31.20703125 C22.09130341 28.97154591 22.09130341 28.97154591 21 27 C17.83754459 25.9458482 15.13051782 25.68724328 11.8125 25.4375 C9.894375 25.293125 7.97625 25.14875 6 25 C6 31.27 6 37.54 6 44 C4.02 44 2.04 44 0 44 C0 29.48 0 14.96 0 0 Z " fill="#2B5478" transform="translate(616,961)"/>
<path d="M0 0 C3.3 0 6.6 0 10 0 C13.96 11.88 17.92 23.76 22 36 C25.32377089 27.70748232 25.32377089 27.70748232 28.359375 19.3359375 C28.75253906 18.19511719 29.14570312 17.05429687 29.55078125 15.87890625 C29.94652344 14.72261719 30.34226562 13.56632813 30.75 12.375 C31.16121094 11.18003906 31.57242188 9.98507812 31.99609375 8.75390625 C32.99961551 5.83669184 34.00086769 2.91872006 35 0 C37.97 0 40.94 0 44 0 C44 14.52 44 29.04 44 44 C42.35 44 40.7 44 39 44 C38.67 32.12 38.34 20.24 38 8 C36.68 12.29 35.36 16.58 34 21 C32.60273794 25.11274398 31.19294777 29.2161316 29.75 33.3125 C29.20472656 34.87000977 29.20472656 34.87000977 28.6484375 36.45898438 C27.76780236 38.97342945 26.8849801 41.48708162 26 44 C23.69 44 21.38 44 19 44 C15.99558406 36.70731609 13.3122485 29.33324406 10.75 21.875 C9.5125 18.28625 8.275 14.6975 7 11 C6.67 21.89 6.34 32.78 6 44 C4.02 44 2.04 44 0 44 C0 29.48 0 14.96 0 0 Z " fill="#275075" transform="translate(523,961)"/>
<path d="M0 0 C2.97 0 5.94 0 9 0 C13.29 12.21 17.58 24.42 22 37 C25.96 24.79 29.92 12.58 34 0 C37.3 0 40.6 0 44 0 C44 14.52 44 29.04 44 44 C42.02 44 40.04 44 38 44 C37.67 32.78 37.34 21.56 37 10 C33.42339577 20.44063809 33.42339577 20.44063809 29.84985352 30.88232422 C29.40131554 32.18981677 28.95267358 33.49727365 28.50390625 34.8046875 C28.27151245 35.48539307 28.03911865 36.16609863 27.79968262 36.86743164 C26.1140718 41.7718564 26.1140718 41.7718564 25 44 C22.69 44 20.38 44 18 44 C14.04 32.45 10.08 20.9 6 9 C5.67 20.55 5.34 32.1 5 44 C3.35 44 1.7 44 0 44 C0 29.48 0 14.96 0 0 Z " fill="#265075" transform="translate(468,961)"/>
<path d="M0 0 C5.34740414 1.95385921 8.45618143 4.91236287 11 10 C11.58423767 15.61766986 11.4122699 20.30812889 8 25 C4.40318089 28.06215681 1.16311875 29.79230022 -3.5 30.625 C-9.34777674 29.58075415 -13.49987589 27.06267066 -17 22.25 C-18.73843114 16.6000988 -19.01010848 12.05906728 -16.375 6.6875 C-11.50459869 1.17625641 -7.27162239 -1.19254607 0 0 Z " fill="#204B71" transform="translate(475,559)"/>
<path d="M0 0 C4.53390589 2.56589179 7.18733108 4.97896431 8.8203125 10.08203125 C9.38238685 15.32805851 8.70469042 18.65931845 5.8203125 23.08203125 C2.39474895 26.47105545 -0.53083446 28.9551964 -5.4296875 29.33203125 C-10.81448157 28.97304498 -13.87571475 27.52697403 -17.4921875 23.51953125 C-20.9396987 18.53979285 -20.63544261 14.01544685 -20.1796875 8.08203125 C-18.65276688 3.86054484 -16.13498728 1.86794122 -12.1328125 -0.18359375 C-7.78783637 -1.81730478 -4.18827449 -1.76387904 0 0 Z " fill="#204B71" transform="translate(595.1796875,559.91796875)"/>
<path d="M0 0 C4.51269568 3.312231 7.26641874 8.24066248 9.01171875 13.4765625 C9.8409837 23.29179686 8.93442783 30.59968094 2.69921875 38.3515625 C-2.70505433 42.62470866 -7.70803016 44.06149149 -14.49609375 43.82421875 C-20.10470533 43.04182623 -23.80196441 40.63651674 -27.80078125 36.7265625 C-32.58287848 29.62173233 -34.05146926 23.04316937 -32.98828125 14.4765625 C-31.16965566 7.28212541 -27.03020632 2.6451186 -20.98828125 -1.5234375 C-14.05659777 -3.83399866 -6.52609019 -3.25718685 0 0 Z M-23.98828125 7.4765625 C-26.85490213 14.48385798 -27.3740507 22.75494597 -25.23046875 30.05859375 C-23.44539235 33.84661021 -21.63789497 36.29198022 -17.98828125 38.4765625 C-13.15318967 39.21155407 -8.51516455 39.11276388 -3.98828125 37.2265625 C0.61870517 33.19544938 2.64356768 29.06466171 3.2734375 22.92578125 C3.59030572 15.02592866 1.90536239 10.09361705 -2.98828125 3.9765625 C-10.44558592 0.24791016 -18.65497194 1.02045123 -23.98828125 7.4765625 Z " fill="#2A5378" transform="translate(449.98828125,962.5234375)"/>
<path d="M0 0 C4.2939334 4.10724064 5.64496506 7.08275106 6 13 C4.02 13 2.04 13 0 13 C-0.2475 12.0925 -0.495 11.185 -0.75 10.25 C-2.09555736 6.75155087 -3.09831986 5.31837817 -6 3 C-10.05659935 2.1909121 -13.92251573 2.3473794 -18 3 C-21.48781399 5.51122607 -23.42869753 8.04465239 -25 12 C-25.83453795 20.42301098 -25.9072092 27.84949517 -21 35 C-16.53653698 37.97564201 -12.23286419 37.61292699 -7 37 C-3.21040676 34.98919542 -2.28921939 33.71616229 -0.6875 29.75 C-0.3471875 28.38875 -0.3471875 28.38875 0 27 C1.98 27 3.96 27 6 27 C5.25270097 32.23109321 3.52365423 35.59663426 -0.375 39.1875 C-6.05489773 43.10933415 -11.18683209 43.85297877 -18 43 C-23.92241667 40.99162749 -28.05362199 36.62698554 -30.97265625 31.1875 C-34.05862243 24.06824778 -33.97403215 17.03159661 -31.4375 9.75 C-28.85805453 3.93252723 -25.05331343 0.81548366 -19.6875 -2.375 C-12.72911198 -3.99322977 -6.23969379 -3.67040811 0 0 Z " fill="#2C5479" transform="translate(685,963)"/>
<path d="M0 0 C3.50177904 1.99120769 5.75235377 3.58951234 8.1875 6.8125 C8.87332226 9.54562871 9.04315666 11.97374768 9.1875 14.8125 C7.5375 14.8125 5.8875 14.8125 4.1875 14.8125 C3.96835937 14.26980469 3.74921875 13.72710938 3.5234375 13.16796875 C1.90857587 9.52468337 0.70738899 7.21148457 -2.5 4.75 C-6.90495988 3.50331324 -10.45566734 3.26426839 -14.8125 4.8125 C-18.54227942 7.78855316 -21.0256119 11.065512 -21.8125 15.8125 C-22.38217482 24.29189064 -22.5069523 30.5582822 -16.75 37.1875 C-12.45452483 39.56372031 -8.61436246 39.58648441 -3.8125 38.8125 C-0.08110016 36.79132509 0.91275685 35.49281637 2.5 31.5625 C2.8403125 30.20125 2.8403125 30.20125 3.1875 28.8125 C5.1675 28.8125 7.1475 28.8125 9.1875 28.8125 C8.7104205 33.82183477 7.33167521 36.88228099 4.1875 40.8125 C-1.56575861 44.9836125 -7.85177659 45.74268676 -14.8125 44.8125 C-19.91123282 42.71558087 -23.85246741 39.4802437 -26.8125 34.8125 C-29.7528004 27.45109573 -30.06645308 18.97910416 -28.1953125 11.26953125 C-25.87982448 5.97259626 -21.70681767 2.71693081 -16.8125 -0.1875 C-11.18257653 -2.06414116 -5.626553 -1.7525329 0 0 Z " fill="#2A5377" transform="translate(401.8125,961.1875)"/>
<path d="M0 0 C9.57 0 19.14 0 29 0 C29 1.32 29 2.64 29 4 C21.41 4 13.82 4 6 4 C6 9.28 6 14.56 6 20 C12.93 20 19.86 20 27 20 C27 21.32 27 22.64 27 24 C20.07 24 13.14 24 6 24 C6 29.28 6 34.56 6 40 C13.92 40 21.84 40 30 40 C30 41.32 30 42.64 30 44 C20.1 44 10.2 44 0 44 C0 29.48 0 14.96 0 0 Z " fill="#244F74" transform="translate(700,961)"/>
<path d="M0 0 C9.24 0 18.48 0 28 0 C28 1.32 28 2.64 28 4 C20.41 4 12.82 4 5 4 C5 9.28 5 14.56 5 20 C11.93 20 18.86 20 26 20 C26 21.32 26 22.64 26 24 C19.07 24 12.14 24 5 24 C5 29.28 5 34.56 5 40 C12.92 40 20.84 40 29 40 C29 41.32 29 42.64 29 44 C19.43 44 9.86 44 0 44 C0 29.48 0 14.96 0 0 Z " fill="#1C486F" transform="translate(579,961)"/>
<path d="M0 0 C9.24 0 18.48 0 28 0 C28 1.32 28 2.64 28 4 C20.41 4 12.82 4 5 4 C5 9.28 5 14.56 5 20 C11.93 20 18.86 20 26 20 C26 21.32 26 22.64 26 24 C19.07 24 12.14 24 5 24 C5 29.28 5 34.56 5 40 C12.92 40 20.84 40 29 40 C29 41.32 29 42.64 29 44 C19.43 44 9.86 44 0 44 C0 29.48 0 14.96 0 0 Z " fill="#1C486F" transform="translate(321,961)"/>
<path d="M0 0 C1.65 0 3.3 0 5 0 C5 27.06 5 54.12 5 82 C3.35 82 1.7 82 0 82 C0 54.94 0 27.88 0 0 Z " fill="#F9F9F9" transform="translate(773,796)"/>
<path d="M0 0 C1.65 0 3.3 0 5 0 C5 27.06 5 54.12 5 82 C3.35 82 1.7 82 0 82 C0 54.94 0 27.88 0 0 Z " fill="#F9F9F9" transform="translate(191,796)"/>
<path d="M0 0 C2.475 0.495 2.475 0.495 5 1 C5 19.81 5 38.62 5 58 C3.35 58 1.7 58 0 58 C0 38.86 0 19.72 0 0 Z " fill="#F9F9F9" transform="translate(853,793)"/>
<path d="M0 0 C2.60478883 -0.0809313 5.20706653 -0.14045434 7.8125 -0.1875 C8.55048828 -0.21263672 9.28847656 -0.23777344 10.04882812 -0.26367188 C15.47118067 -0.33727847 15.47118067 -0.33727847 17.984375 1.265625 C19.74119403 4.26573134 19.8059243 7.69380659 19 11 C17.45703125 13.23828125 17.45703125 13.23828125 15 15 C12.2317375 15.29449601 9.98597978 15.38343363 7.25 15.25 C4.8575 15.1675 2.465 15.085 0 15 C0 10.05 0 5.1 0 0 Z " fill="#F8F9F9" transform="translate(622,966)"/>
<path d="M0 0 C0.33 0.99 0.66 1.98 1 3 C1.99 3.33 2.98 3.66 4 4 C6.76772377 10.40946558 6.18583935 17.13426846 6 24 C4.34385343 24.38218767 2.67542976 24.71395102 1 25 C0 24 0 24 -0.11352539 21.68334961 C-0.10828857 20.68311768 -0.10305176 19.68288574 -0.09765625 18.65234375 C-0.09443359 17.57275391 -0.09121094 16.49316406 -0.08789062 15.38085938 C-0.07951172 14.24455078 -0.07113281 13.10824219 -0.0625 11.9375 C-0.05798828 10.79732422 -0.05347656 9.65714844 -0.04882812 8.48242188 C-0.03699747 5.65489649 -0.0205141 2.8274736 0 0 Z " fill="#E4E8EC" transform="translate(614,860)"/>
<path d="M0 0 C1.98 0.495 1.98 0.495 4 1 C4 7.27 4 13.54 4 20 C-0.78370057 13.62173257 -1.62627946 8.8649048 -1 1 C-0.67 0.67 -0.34 0.34 0 0 Z " fill="#F1F3F4" transform="translate(616,789)"/>
<path d="M0 0 C4.62 0 9.24 0 14 0 C14 1.32 14 2.64 14 4 C9.38 4 4.76 4 0 4 C0 2.68 0 1.36 0 0 Z " fill="#3A6082" transform="translate(354,985)"/>
<path d="M0 0 C0.66 0 1.32 0 2 0 C2.66 6.93 3.32 13.86 4 21 C3.34 21 2.68 21 2 21 C2 24.3 2 27.6 2 31 C1.67 31 1.34 31 1 31 C0.67 20.77 0.34 10.54 0 0 Z " fill="#D9DFE5" transform="translate(262,820)"/>
<path d="M0 0 C0.33 0 0.66 0 1 0 C1.75741925 9.02140429 2.13534286 17.94706663 2 27 C1.34 27 0.68 27 0 27 C-0.66 20.73 -1.32 14.46 -2 8 C-1.67 8 -1.34 8 -1 8 C-0.67 5.36 -0.34 2.72 0 0 Z " fill="#BFCBD5" transform="translate(283,822)"/>
<path d="M0 0 C0.66 0 1.32 0 2 0 C2.66 6.27 3.32 12.54 4 19 C3.67 19 3.34 19 3 19 C2.67 20.65 2.34 22.3 2 24 C1.67 24 1.34 24 1 24 C0.67 16.08 0.34 8.16 0 0 Z " fill="#D5DCE3" transform="translate(437,819)"/>
<path d="M0 0 C0.66 0 1.32 0 2 0 C2.33 6.27 2.66 12.54 3 19 C2.34 19 1.68 19 1 19 C0.15976812 14.64667264 -0.10770995 10.55557481 -0.0625 6.125 C-0.05347656 4.97257813 -0.04445313 3.82015625 -0.03515625 2.6328125 C-0.02355469 1.76398437 -0.01195312 0.89515625 0 0 Z " fill="#E2E7EB" transform="translate(457,829)"/>
</svg>
